<svg width="200" height="200" viewBox="0 0 200 200" fill="none" xmlns="http://www.w3.org/2000/svg">
<rect width="200" height="200" fill="#1E1E1E"/>
<rect width="200" height="200" fill="#06C167"/>
<path d="M32.0582 70.315C32.0582 65.895 33.0549 61.93 35.0482 58.42C37.0415 54.8667 39.7499 52.0933 43.1732 50.1C46.6399 48.1067 50.4749 47.11 54.6782 47.11C59.6182 47.11 63.9299 48.3017 67.6132 50.685C71.2965 53.0683 73.9832 56.4483 75.6732 60.825H68.5882C67.3315 58.095 65.5115 55.9933 63.1282 54.52C60.7882 53.0467 57.9715 52.31 54.6782 52.31C51.5149 52.31 48.6765 53.0467 46.1632 54.52C43.6499 55.9933 41.6782 58.095 40.2482 60.825C38.8182 63.5117 38.1032 66.675 38.1032 70.315C38.1032 73.9117 38.8182 77.075 40.2482 79.805C41.6782 82.4917 43.6499 84.5717 46.1632 86.045C48.6765 87.5183 51.5149 88.255 54.6782 88.255C57.9715 88.255 60.7882 87.54 63.1282 86.11C65.5115 84.6367 67.3315 82.535 68.5882 79.805H75.6732C73.9832 84.1383 71.2965 87.4967 67.6132 89.88C63.9299 92.22 59.6182 93.39 54.6782 93.39C50.4749 93.39 46.6399 92.415 43.1732 90.465C39.7499 88.4717 37.0415 85.72 35.0482 82.21C33.0549 78.7 32.0582 74.735 32.0582 70.315ZM116.978 73.825C116.978 74.9517 116.913 76.1433 116.783 77.4H88.3131C88.5298 80.91 89.7215 83.6617 91.8881 85.655C94.0981 87.605 96.7631 88.58 99.8831 88.58C102.44 88.58 104.563 87.995 106.253 86.825C107.986 85.6117 109.2 84.0083 109.893 82.015H116.263C115.31 85.4383 113.403 88.2333 110.543 90.4C107.683 92.5233 104.13 93.585 99.8831 93.585C96.5031 93.585 93.4698 92.8267 90.7831 91.31C88.1398 89.7933 86.0598 87.6483 84.5431 84.875C83.0265 82.0583 82.2681 78.8083 82.2681 75.125C82.2681 71.4417 83.0048 68.2133 84.4781 65.44C85.9515 62.6667 88.0098 60.5433 90.6531 59.07C93.3398 57.5533 96.4165 56.795 99.8831 56.795C103.263 56.795 106.253 57.5317 108.853 59.005C111.453 60.4783 113.446 62.515 114.833 65.115C116.263 67.6717 116.978 70.575 116.978 73.825ZM110.868 72.59C110.868 70.3367 110.37 68.4083 109.373 66.805C108.376 65.1583 107.011 63.9233 105.278 63.1C103.588 62.2333 101.703 61.8 99.6231 61.8C96.6331 61.8 94.0765 62.7533 91.9531 64.66C89.8731 66.5667 88.6815 69.21 88.3781 72.59H110.868ZM137.396 93.585C134.666 93.585 132.217 93.13 130.051 92.22C127.884 91.2667 126.172 89.9667 124.916 88.32C123.659 86.63 122.966 84.7017 122.836 82.535H128.946C129.119 84.3117 129.942 85.7633 131.416 86.89C132.932 88.0167 134.904 88.58 137.331 88.58C139.584 88.58 141.361 88.0817 142.661 87.085C143.961 86.0883 144.611 84.8317 144.611 83.315C144.611 81.755 143.917 80.6067 142.531 79.87C141.144 79.09 138.999 78.3317 136.096 77.595C133.452 76.9017 131.286 76.2083 129.596 75.515C127.949 74.7783 126.519 73.7167 125.306 72.33C124.136 70.9 123.551 69.0367 123.551 66.74C123.551 64.92 124.092 63.2517 125.176 61.735C126.259 60.2183 127.797 59.0267 129.791 58.16C131.784 57.25 134.059 56.795 136.616 56.795C140.559 56.795 143.744 57.7917 146.171 59.785C148.597 61.7783 149.897 64.5083 150.071 67.975H144.156C144.026 66.1117 143.267 64.6167 141.881 63.49C140.537 62.3633 138.717 61.8 136.421 61.8C134.297 61.8 132.607 62.255 131.351 63.165C130.094 64.075 129.466 65.2667 129.466 66.74C129.466 67.91 129.834 68.885 130.571 69.665C131.351 70.4017 132.304 71.0083 133.431 71.485C134.601 71.9183 136.204 72.4167 138.241 72.98C140.797 73.6733 142.877 74.3667 144.481 75.06C146.084 75.71 147.449 76.7067 148.576 78.05C149.746 79.3933 150.352 81.1483 150.396 83.315C150.396 85.265 149.854 87.02 148.771 88.58C147.687 90.14 146.149 91.375 144.156 92.285C142.206 93.1517 139.952 93.585 137.396 93.585ZM161.801 51.595C160.674 51.595 159.721 51.205 158.941 50.425C158.161 49.645 157.771 48.6917 157.771 47.565C157.771 46.4383 158.161 45.485 158.941 44.705C159.721 43.925 160.674 43.535 161.801 43.535C162.884 43.535 163.794 43.925 164.531 44.705C165.311 45.485 165.701 46.4383 165.701 47.565C165.701 48.6917 165.311 49.645 164.531 50.425C163.794 51.205 162.884 51.595 161.801 51.595ZM164.661 57.38V93H158.746V57.38H164.661Z" fill="black"/>
<path d="M43.9512 111.975V123.35H59.2262V130.565H43.9512V142.59H61.1762V150H34.8512V104.565H61.1762V111.975H43.9512ZM67.1059 131.865C67.1059 128.225 67.8209 124.997 69.2509 122.18C70.7243 119.363 72.6959 117.197 75.1659 115.68C77.6793 114.163 80.4743 113.405 83.5509 113.405C86.2376 113.405 88.5776 113.947 90.5709 115.03C92.6076 116.113 94.2326 117.478 95.4459 119.125V113.99H104.611V150H95.4459V144.735C94.2759 146.425 92.6509 147.833 90.5709 148.96C88.5343 150.043 86.1726 150.585 83.4859 150.585C80.4526 150.585 77.6793 149.805 75.1659 148.245C72.6959 146.685 70.7243 144.497 69.2509 141.68C67.8209 138.82 67.1059 135.548 67.1059 131.865ZM95.4459 131.995C95.4459 129.785 95.0126 127.9 94.1459 126.34C93.2793 124.737 92.1093 123.523 90.6359 122.7C89.1626 121.833 87.5809 121.4 85.8909 121.4C84.2009 121.4 82.6409 121.812 81.2109 122.635C79.7809 123.458 78.6109 124.672 77.7009 126.275C76.8343 127.835 76.4009 129.698 76.4009 131.865C76.4009 134.032 76.8343 135.938 77.7009 137.585C78.6109 139.188 79.7809 140.423 81.2109 141.29C82.6843 142.157 84.2443 142.59 85.8909 142.59C87.5809 142.59 89.1626 142.178 90.6359 141.355C92.1093 140.488 93.2793 139.275 94.1459 137.715C95.0126 136.112 95.4459 134.205 95.4459 131.995ZM124.094 121.465V138.885C124.094 140.098 124.375 140.987 124.939 141.55C125.545 142.07 126.542 142.33 127.929 142.33H132.154V150H126.434C118.764 150 114.929 146.273 114.929 138.82V121.465H110.639V113.99H114.929V105.085H124.094V113.99H132.154V121.465H124.094ZM152.479 150.585C149.532 150.585 146.889 150.065 144.549 149.025C142.209 147.942 140.346 146.49 138.959 144.67C137.616 142.85 136.879 140.835 136.749 138.625H145.914C146.087 140.012 146.759 141.16 147.929 142.07C149.142 142.98 150.637 143.435 152.414 143.435C154.147 143.435 155.491 143.088 156.444 142.395C157.441 141.702 157.939 140.813 157.939 139.73C157.939 138.56 157.332 137.693 156.119 137.13C154.949 136.523 153.064 135.873 150.464 135.18C147.777 134.53 145.567 133.858 143.834 133.165C142.144 132.472 140.671 131.41 139.414 129.98C138.201 128.55 137.594 126.622 137.594 124.195C137.594 122.202 138.157 120.382 139.284 118.735C140.454 117.088 142.101 115.788 144.224 114.835C146.391 113.882 148.926 113.405 151.829 113.405C156.119 113.405 159.542 114.488 162.099 116.655C164.656 118.778 166.064 121.66 166.324 125.3H157.614C157.484 123.87 156.877 122.743 155.794 121.92C154.754 121.053 153.346 120.62 151.569 120.62C149.922 120.62 148.644 120.923 147.734 121.53C146.867 122.137 146.434 122.982 146.434 124.065C146.434 125.278 147.041 126.21 148.254 126.86C149.467 127.467 151.352 128.095 153.909 128.745C156.509 129.395 158.654 130.067 160.344 130.76C162.034 131.453 163.486 132.537 164.699 134.01C165.956 135.44 166.606 137.347 166.649 139.73C166.649 141.81 166.064 143.673 164.894 145.32C163.767 146.967 162.121 148.267 159.954 149.22C157.831 150.13 155.339 150.585 152.479 150.585Z" fill="black"/>
</svg>
